<svg width="157" height="48" viewBox="0 0 157 48" fill="none" xmlns="http://www.w3.org/2000/svg">
<g clip-path="url(#clip0_142_17100)">
<path d="M38.2485 0.486695L5.16238 6.6659C2.34653 7.21343 0 10.0293 0 13.3144V34.2768C0 37.7184 2.34653 40.3778 5.16238 40.9253L38.3267 47.5738C42.4723 48.4342 45.9921 45.2273 45.9921 40.7689V7.60452C45.9139 2.67679 42.4723 -0.295484 38.2485 0.486695Z" fill="#98A2B3"/>
<path d="M13.297 29.1931C12.3584 30.2881 10.9505 31.0703 9.30793 31.0703C5.6317 31.0703 2.97229 28.098 2.97229 23.9525C2.97229 19.8069 5.70991 16.8346 9.30793 16.8346C10.7159 16.8346 11.9673 17.3822 12.906 18.2426V11.7505H16.4258V30.7574H13.5317L13.297 29.1931ZM6.49209 23.9525C6.49209 26.3772 7.8218 27.9416 9.69902 27.9416C11.8109 27.9416 12.906 26.3772 12.906 23.9525C12.906 21.5277 11.7327 19.9634 9.69902 19.9634C7.8218 19.9634 6.49209 21.5277 6.49209 23.9525Z" fill="#FCFCFD"/>
<path d="M25.8119 31.0703C21.8228 31.0703 18.7723 28.098 18.7723 23.9525C18.7723 19.6505 21.51 16.8347 25.4991 16.8347C29.6446 16.8347 31.9912 19.6505 31.9912 23.405C31.9912 23.9525 31.9912 24.5782 31.8347 25.1257H22.3704C22.6832 26.8465 23.8565 28.0198 25.8119 27.9416C26.9852 27.9416 28.2367 27.3158 29.0971 25.9079L31.9129 27.3158C30.505 29.8188 28.706 31.0703 25.8119 31.0703ZM22.5268 22.3881H28.4714C28.3149 20.6673 27.2981 19.5723 25.4991 19.5723C23.7001 19.5723 22.7614 20.5891 22.5268 22.3881Z" fill="#FCFCFD"/>
<path d="M33.3991 20.9017C33.3991 18.5552 35.2763 16.678 38.5615 16.678C40.7516 16.678 42.3942 17.773 43.3328 19.0245L41.1427 20.98C40.6734 20.276 39.7348 19.6503 38.3268 19.6503C37.2318 19.6503 36.5278 20.1196 36.5278 20.9017C36.5278 21.6057 36.8407 22.075 38.8744 22.5443C41.6902 23.2483 43.411 24.1869 43.411 26.7681C43.411 29.3493 41.1427 31.0701 38.1704 31.0701C35.9803 31.0701 34.3377 30.0532 32.9298 28.0978L35.1199 26.2988C36.3714 27.7849 37.2318 28.176 38.5615 28.176C39.5001 28.176 40.1258 27.7067 40.1258 27.0027C40.1258 26.0641 39.1872 25.673 36.8407 25.1255C34.7288 24.578 33.3991 23.4047 33.3991 20.9017Z" fill="#FCFCFD"/>
<path d="M54.909 31.0702C50.8417 31.0702 47.9476 28.0979 47.9476 23.9524C47.9476 19.8068 50.8417 16.8345 54.909 16.8345C57.7249 16.8345 59.915 17.9296 61.2447 20.4326L58.2724 21.9187C57.3338 20.4326 56.3952 19.885 54.909 19.885C52.7971 19.885 51.4674 21.4494 51.4674 23.8741C51.4674 26.2989 52.7189 27.8632 54.909 27.8632C56.3169 27.8632 57.3338 27.3157 58.2724 25.8296L61.2447 27.3157C59.9932 29.9751 57.8031 31.0702 54.909 31.0702Z" fill="#98A2B3"/>
<path d="M76.2624 23.9524C76.2624 28.0979 73.3683 31.0702 69.2228 31.0702C65.0772 31.0702 62.1832 28.0979 62.1832 23.9524C62.1832 19.8068 65.0772 16.8345 69.2228 16.8345C73.3683 16.8345 76.2624 19.8068 76.2624 23.9524ZM72.5861 23.9524C72.5861 21.6058 71.3347 19.9632 69.0663 19.9632C66.9545 19.9632 65.5465 21.6058 65.5465 23.9524C65.5465 26.3771 66.798 27.9415 69.0663 27.9415C71.3347 27.8632 72.5861 26.2989 72.5861 23.9524Z" fill="#98A2B3"/>
<path d="M82.5198 21.4587V31.0012H79V17.3913H81.8941L82.1287 18.6428C83.302 17.5478 84.8663 17.0002 86.4307 17.0002C88.5426 17.0002 89.7158 17.7824 90.2634 18.8775C91.4366 17.626 93.1574 17.0002 94.8782 17.0002C98.8673 17.0002 99.4149 19.8161 99.4149 22.6319V30.923H95.895V22.5537C95.895 20.6765 95.3475 20.129 94.0178 20.129C92.8446 20.129 91.7495 20.6765 90.8891 21.4587C90.8891 21.8497 90.8891 22.2408 90.8891 22.6319V30.923H87.2911V22.5537C87.2911 20.6765 86.7436 20.129 85.4139 20.129C84.5535 20.129 83.3802 20.6765 82.5198 21.4587Z" fill="#98A2B3"/>
<path d="M105.594 29.6621V35.5284H102.074V17.1473H104.968L105.281 18.6334C106.298 17.4601 107.628 16.7562 109.27 16.7562C112.947 16.7562 115.606 19.7284 115.606 23.874C115.606 28.0195 112.868 30.9918 109.27 30.9918C107.862 31.07 106.611 30.5225 105.594 29.6621ZM112.086 23.9522C112.086 21.5275 110.835 19.9631 108.879 19.9631C106.767 19.9631 105.672 21.5275 105.672 23.9522C105.672 26.377 106.846 27.9413 108.879 27.9413C110.756 27.8631 112.086 26.377 112.086 23.9522Z" fill="#98A2B3"/>
<path d="M121.85 31.0854C121.537 31.0854 121.224 31.1636 120.833 31.1636C118.408 31.1636 117 29.9121 117 27.0181V12.0002H120.52V26.2359C120.52 27.4092 120.911 27.722 121.85 27.722V31.0854Z" fill="#98A2B3"/>
<path d="M126.244 10.7334C127.495 10.7334 128.434 11.7502 128.434 13.0017C128.434 14.175 127.417 15.1918 126.244 15.1918C125.07 15.1918 124.054 14.175 124.054 13.0017C123.975 11.672 124.992 10.7334 126.244 10.7334ZM124.445 30.6789V17.069H127.964V30.6789H124.445Z" fill="#98A2B3"/>
<path d="M137.272 31.0702C133.205 31.0702 130.311 28.0979 130.311 23.9524C130.311 19.8068 133.205 16.8345 137.272 16.8345C140.088 16.8345 142.278 17.9296 143.608 20.4326L140.636 21.9187C139.697 20.4326 138.758 19.885 137.272 19.885C135.16 19.885 133.831 21.4494 133.831 23.8741C133.831 26.2989 135.082 27.8632 137.272 27.8632C138.68 27.8632 139.697 27.3157 140.636 25.8296L143.608 27.3157C142.278 29.9751 140.088 31.0702 137.272 31.0702Z" fill="#98A2B3"/>
<path d="M153.542 29.5841C152.525 30.601 151.117 31.1485 149.631 31.1485C146.893 31.1485 144.468 29.193 144.468 26.5336C144.468 23.6396 146.893 21.9188 149.787 21.9188C151.195 21.9188 152.212 22.4663 152.916 23.0921V21.6841C152.916 20.5109 151.821 19.8069 150.335 19.8069C149.318 19.8069 148.066 20.0416 146.658 20.8237L145.642 18.2425C147.362 17.3039 148.927 16.9128 150.96 16.9128C154.558 16.9128 156.514 18.9465 156.514 22.3881V30.8356H153.698L153.542 29.5841ZM150.491 28.2544C151.743 28.2544 152.603 27.5505 152.681 26.4554C152.681 25.3604 151.821 24.6564 150.491 24.6564C149.24 24.6564 148.145 25.4386 148.145 26.4554C148.145 27.5505 149.161 28.2544 150.491 28.2544Z" fill="#98A2B3"/>
</g>
<defs>
<clipPath id="clip0_142_17100">
<rect width="156.718" height="48" fill="white"/>
</clipPath>
</defs>
</svg>
