<svg width="116" height="64" viewBox="0 0 116 64" fill="none" xmlns="http://www.w3.org/2000/svg">
<path d="M13.9561 16.6477C13.5347 16.4721 13.1133 16.2965 12.6918 16.156C12.3406 16.0156 11.9894 15.8751 11.6382 15.7346C9.74173 14.962 9.42565 14.4352 9.32029 14.084C9.25005 13.8732 9.32029 13.6274 9.53101 13.4167C9.77685 13.1357 10.1632 12.9952 10.6197 13.0304C11.287 13.1357 11.6031 13.4869 11.7436 13.8381C11.7787 13.9435 11.9192 14.0488 12.0597 14.0137L17.0818 12.9952C17.2574 12.9601 17.3628 12.8196 17.3277 12.644C17.0467 11.3797 16.239 10.5719 15.958 10.3261C15.5717 10.01 15.1502 9.69394 14.6586 9.4481C13.6752 8.95641 12.5513 8.60521 11.3221 8.46473C9.25005 8.21889 7.2482 8.64033 5.70291 9.6237C5.17611 9.93978 4.71955 10.3261 4.33323 10.7827C4.05227 11.0987 2.75282 12.8196 3.13914 14.8566C3.38498 16.2965 4.43859 17.5257 6.1946 18.5442C6.26484 18.5793 6.29996 18.5793 6.33508 18.6145L6.3702 18.6496C6.7214 18.8252 7.0726 19.0008 7.45892 19.1764C8.02084 19.4222 8.51253 19.6681 8.89885 19.8437L8.93397 19.8788C10.9007 20.7919 11.287 21.108 11.3573 21.7401C11.3924 22.0211 11.287 22.3021 11.1114 22.5128C10.9007 22.6884 10.4793 22.8991 9.70661 22.7938C9.39053 22.7586 8.75837 22.5128 8.40717 21.986C8.33692 21.8806 8.23156 21.8104 8.09108 21.8455L2.99866 22.9342C2.82306 22.9694 2.7177 23.1801 2.78794 23.3557C3.34986 24.62 4.15763 25.6385 5.24635 26.376C6.29996 26.973 7.52916 27.3594 8.96909 27.535C9.42565 27.5701 9.88221 27.6052 10.3388 27.6052C13.5347 27.6052 16.0985 26.2004 17.2223 23.8122C17.5033 23.1098 17.6789 22.4074 17.714 21.7401C17.8896 18.8252 15.1502 17.2096 13.9561 16.6477ZM27.9875 8.39449C22.5438 8.39449 18.1187 12.7845 18.1187 18.1579C18.1187 23.5313 22.5438 27.8862 27.9875 27.8862C33.4311 27.8862 37.8562 23.5313 37.8562 18.1579C37.8562 12.7845 33.4311 8.39449 27.9875 8.39449ZM27.9875 22.4074C25.5993 22.4074 23.6677 20.4758 23.6677 18.1579C23.6677 15.8048 25.5993 13.9084 27.9875 13.9084C30.3756 13.9084 32.3072 15.8048 32.3072 18.1579C32.3072 20.4758 30.3756 22.4074 27.9875 22.4074ZM58.5873 8.74569H53.4246C53.249 8.74569 53.1085 8.88617 53.1085 9.02665V9.58858C53.1085 9.72906 53.0032 9.7993 52.8978 9.72906C51.4228 8.88617 49.737 8.42961 48.0161 8.42961C42.5725 8.42961 38.1825 12.8196 38.1825 18.1579C38.1825 23.4962 42.5725 27.8862 48.0161 27.8862C49.737 27.8862 51.3876 27.4296 52.8978 26.5867C52.968 26.5516 53.0734 26.5867 53.1085 26.6921C53.249 27.535 53.1085 28.2725 52.6871 28.9047C52.0198 29.8178 50.7555 30.4148 49.2102 30.5202C46.822 30.6607 44.9607 29.1154 44.1529 28.2725C44.0475 28.1671 43.8719 28.1671 43.7666 28.2374L39.9385 31.1875C39.798 31.3279 39.7629 31.5387 39.9034 31.644C43.907 35.2965 47.3839 35.4721 48.7888 35.4721C48.8941 35.4721 48.9644 35.4721 49.0346 35.4721H49.1751C55.4616 35.4721 58.9034 31.925 58.9034 25.5331V23.6718V9.02665C58.9034 8.88617 58.7629 8.74569 58.5873 8.74569ZM48.8941 22.6182C48.859 22.6182 48.8239 22.6182 48.7888 22.6182H48.7536C46.2952 22.5479 44.3987 20.5812 44.3987 18.1579C44.3987 15.6995 46.4006 13.6976 48.8941 13.6976C50.7906 13.6976 52.1954 14.8566 52.8276 16.6126C53.0383 17.1043 53.1085 17.6311 53.1085 18.1579C53.1085 20.6163 51.3876 22.6182 48.8941 22.6182ZM69.7612 8.39449C64.3176 8.39449 59.8925 12.7845 59.8925 18.1579C59.8925 23.5313 64.3176 27.8862 69.7612 27.8862C75.2049 27.8862 79.63 23.5313 79.63 18.1579C79.63 12.7845 75.2049 8.39449 69.7612 8.39449ZM69.7612 22.4074C67.3731 22.4074 65.4415 20.4758 65.4415 18.1579C65.4415 15.8048 67.3731 13.9084 69.7612 13.9084C72.1494 13.9084 74.081 15.8048 74.081 18.1579C74.081 20.4758 72.1494 22.4074 69.7612 22.4074Z" fill="#0D0D0D"/>
<path d="M10.0092 36.8948H10.6063C10.7819 36.8948 10.8872 36.7894 10.9224 36.6138L11.3438 32.5399C11.3438 32.3643 11.2033 32.1887 11.0277 32.1887H8.07763C8.07763 32.1887 7.83179 32.1887 7.41035 32.1887C5.97043 32.294 2.56377 32.8911 2.56377 37.0352V39.2478C2.56377 39.3883 2.45841 39.5288 2.28281 39.5288H0.351202C0.175601 39.5288 0.0702403 39.6692 0.0702403 39.8448V44.2349C0.0702403 44.3753 0.175601 44.5158 0.351202 44.5158H2.28281C2.45841 44.5158 2.56377 44.6563 2.56377 44.7968V55.368V56.3864C2.56377 56.562 2.70425 56.6674 2.87985 56.6674H8.07763C8.21811 56.6674 8.3586 56.562 8.3586 56.3864L8.39372 44.7968C8.39372 44.6563 8.49908 44.5158 8.67468 44.5158H10.6063C10.7819 44.5158 10.8872 44.3753 10.8872 44.2349V39.8448C10.8872 39.6692 10.7819 39.5288 10.6063 39.5288H8.67468C8.49908 39.5288 8.3586 39.3883 8.3586 39.2478C8.3586 38.6156 8.39372 37.7728 8.85028 37.3162C9.09612 37.0352 9.51756 36.8948 10.0092 36.8948ZM28.3228 38.0537H22.7738C22.5982 38.0537 22.4577 38.1942 22.4577 38.3698V48.5546C22.4577 49.257 22.4577 50.1351 22.1767 50.7672C21.8958 51.3643 21.0529 51.7506 19.9993 51.7506C19.4022 51.7506 18.9808 51.6101 18.6296 51.3291C18.4189 51.1535 18.2433 50.9428 18.1028 50.6619C17.8218 50.0297 17.7867 49.257 17.7867 48.5546V38.3698C17.7867 38.1942 17.6462 38.0537 17.4706 38.0537H11.9216C11.746 38.0537 11.6407 38.1942 11.6407 38.3698V48.8356C11.6407 51.575 11.9568 53.1203 13.8533 55.0519C13.9586 55.1572 14.0991 55.2977 14.2747 55.4031C14.2747 55.4382 16.2414 56.9835 18.8403 56.9835C19.9993 56.9835 21.2636 56.6674 22.563 55.7543C22.6684 55.684 22.8089 55.7543 22.8089 55.8948V56.3864C22.8089 56.562 22.9494 56.6674 23.0899 56.6674H28.3228C28.4632 56.6674 28.6037 56.562 28.6037 56.3864V38.3698C28.6037 38.1942 28.4632 38.0537 28.3228 38.0537ZM45.0194 39.7044C44.8789 39.599 44.7384 39.4585 44.5979 39.3532C44.5628 39.318 40.4889 36.087 36.2744 39.002C36.1691 39.0722 36.0637 39.002 36.0637 38.8615V38.3698C36.0637 38.1942 35.9232 38.0537 35.7476 38.0537H30.5499C30.3743 38.0537 30.2689 38.1942 30.2689 38.3698V56.3864C30.2689 56.562 30.3743 56.6674 30.5499 56.6674H36.0988C36.2744 56.6674 36.4149 56.562 36.4149 56.3864V46.2016C36.4149 45.4992 36.4149 44.6212 36.6959 43.989C36.9769 43.392 37.7846 43.0057 38.8733 43.0057C39.4353 43.0057 39.8918 43.1461 40.243 43.4271C40.4537 43.6027 40.6293 43.8134 40.7698 44.0944C41.0508 44.7266 41.0859 45.4992 41.0859 46.2016V56.3864C41.0859 56.562 41.2264 56.6674 41.402 56.6674H46.951C47.0915 56.6674 47.2319 56.562 47.2319 56.3864V45.9206C47.2319 43.1813 46.9159 41.636 45.0194 39.7044ZM68.5293 32.1887H63.2964C63.1559 32.1887 63.0154 32.3291 63.0154 32.5047V38.9317C63.0154 39.0371 62.8749 39.1073 62.8047 39.0371C61.2945 38.1942 59.6088 37.7728 57.8879 37.7728C52.4443 37.7728 48.0191 42.1277 48.0191 47.501C48.0191 52.8744 52.4443 57.2644 57.8879 57.2644C59.6088 57.2644 61.2945 56.8079 62.8047 55.965C62.8749 55.9299 63.0154 56.0001 63.0154 56.1055V56.3864C63.0154 56.5269 63.1559 56.6674 63.2964 56.6674H68.5293C68.6698 56.6674 68.8102 56.5269 68.8102 56.3864V32.5047C68.8102 32.3291 68.6698 32.1887 68.5293 32.1887ZM58.7659 51.9964C56.2724 51.9964 54.2354 49.9946 54.2354 47.501C54.2354 45.0426 56.2724 43.0408 58.7659 43.0408C61.2945 43.0408 63.0154 45.0426 63.0154 47.501C63.0154 49.9946 61.2945 51.9964 58.7659 51.9964ZM89.1489 44.7617C88.9382 44.0593 88.6572 43.392 88.2709 42.7598L88.0953 42.4437C88.0602 42.3735 87.99 42.3033 87.9548 42.233L87.8495 42.0574C87.8144 41.9872 87.7441 41.9169 87.6739 41.8116C87.6036 41.7062 87.5334 41.6009 87.4632 41.5306L87.3929 41.4604C87.3227 41.355 87.2524 41.2848 87.1822 41.2145L87.1471 41.1443L87.0417 41.2497L87.112 41.1443C87.0066 41.0038 86.9012 40.8985 86.7959 40.758L86.7256 40.6877C86.6554 40.6175 86.5852 40.5473 86.4798 40.477V40.4419C86.3744 40.3717 86.2691 40.2663 86.1637 40.1609L86.0935 40.1258C85.953 39.9853 85.8125 39.88 85.672 39.7746C85.6369 39.7746 85.6018 39.7395 85.5667 39.7044C85.3911 39.5639 85.2506 39.4585 85.075 39.3532H85.0399C84.8643 39.2478 84.6184 39.0722 84.4428 39.002C84.4077 38.9668 84.3375 38.9317 84.3023 38.8966L84.2321 39.0371L84.3023 38.8966H84.2672C84.197 38.8615 84.1267 38.8264 84.0214 38.7561H83.9863C83.8107 38.6859 83.6351 38.5805 83.4946 38.5103H83.4243C83.319 38.4752 83.2487 38.44 83.1083 38.4049C83.0731 38.3698 83.038 38.3698 83.0029 38.3347C82.8975 38.2996 82.7571 38.2644 82.6517 38.2293H82.6166C82.4761 38.1942 82.3356 38.124 82.1951 38.0888L82.0898 38.0537C81.8088 37.9835 81.5279 37.9484 81.2469 37.9132L81.1064 37.8781C80.8254 37.843 80.5094 37.8079 80.2284 37.7728H80.123C79.9474 37.7728 79.807 37.7728 79.6665 37.7728C79.526 37.7728 79.3855 37.7728 79.2099 37.7728C79.1748 37.7728 79.1397 37.7728 79.1046 37.8079H79.0694C78.9641 37.8079 78.8587 37.8079 78.7534 37.8079H78.7182C78.6831 37.8079 78.648 37.843 78.6129 37.843C78.4373 37.843 78.2968 37.8781 78.1563 37.8781H78.1212C78.0158 37.9132 77.8051 37.9484 77.6646 37.9835H77.5944C77.489 38.0186 77.3837 38.0186 77.2783 38.0537H77.2432C77.2081 38.0888 77.173 38.0888 77.1378 38.0888C76.9974 38.124 76.8569 38.1591 76.7164 38.1942C76.5759 38.2644 76.4354 38.2996 76.295 38.3347C76.295 38.3698 76.2598 38.3698 76.2247 38.3698L76.1896 38.4049C76.0842 38.44 75.9789 38.4752 75.9086 38.5103H75.8735C75.8384 38.5454 75.8033 38.5454 75.7681 38.5454C75.6277 38.6156 75.5223 38.6859 75.3818 38.721C75.2413 38.7912 75.136 38.8615 74.9955 38.9317C74.9604 38.9317 74.9253 38.9668 74.8901 38.9668V39.002C74.7848 39.0371 74.7145 39.1073 74.6092 39.1424L74.5038 39.2127C74.3633 39.2829 74.258 39.3532 74.1526 39.4234C72.9585 40.2312 71.9401 41.2848 71.2025 42.4789C71.1323 42.5842 71.062 42.7247 70.9918 42.8301L70.9216 43.0057C70.8864 43.0057 70.8864 43.0408 70.8513 43.0759C70.8513 43.111 70.8162 43.1461 70.8162 43.1813L70.7811 43.2515C70.7811 43.2866 70.746 43.3217 70.746 43.3217C70.6757 43.4622 70.6055 43.6027 70.5704 43.7432C70.465 43.9539 70.3596 44.1997 70.2894 44.4807C70.0084 45.2885 69.8328 46.1665 69.7977 47.0094C69.7977 47.185 69.7977 47.3606 69.7977 47.5362C69.7977 47.6766 69.7977 47.8522 69.7977 48.0278C69.8328 48.5195 69.868 49.0112 69.9733 49.4678C70.0084 49.6434 70.0436 49.819 70.0787 49.9595C70.1489 50.1351 70.184 50.3458 70.2894 50.5565C70.4299 50.9779 70.5704 51.3994 70.7811 51.7857C70.7811 51.8208 70.8162 51.8208 70.8162 51.8559L70.8513 51.9262C70.8864 52.0315 70.9567 52.1369 70.9918 52.2071L71.0269 52.2774C71.0972 52.3827 71.1323 52.4881 71.2025 52.5583C71.9401 53.7875 72.9585 54.806 74.1526 55.6138C74.258 55.684 74.3633 55.7543 74.5038 55.8245L74.6092 55.8948C74.7145 55.965 74.7848 56.0001 74.8901 56.0352V56.0704C74.9253 56.0704 74.9604 56.1055 74.9955 56.1055C75.136 56.1757 75.2413 56.246 75.3818 56.3162C75.5223 56.3513 75.6277 56.4216 75.7681 56.4918C75.8033 56.4918 75.8384 56.4918 75.8735 56.5269H75.9086C75.9789 56.562 76.0842 56.5972 76.1896 56.6323L76.2247 56.6674C76.2598 56.6674 76.295 56.6674 76.295 56.7025C76.4354 56.7376 76.5759 56.7728 76.7164 56.843C76.8569 56.8781 76.9974 56.9132 77.1378 56.9484C77.173 56.9484 77.2081 56.9484 77.2432 56.9835H77.2783C77.3837 57.0186 77.489 57.0186 77.5944 57.0537L77.7349 57.0888C77.8402 57.0888 77.9456 57.124 78.0861 57.1591H78.1563C78.2968 57.1942 78.4373 57.1942 78.6129 57.1942C78.648 57.2293 78.6831 57.2293 78.7182 57.2293H78.7534C78.8587 57.2293 78.9641 57.2293 79.0694 57.2644H79.1046C79.1397 57.2644 79.1748 57.2644 79.2099 57.2644C79.3855 57.2644 79.526 57.2644 79.6665 57.2644C79.807 57.2644 79.9474 57.2644 80.123 57.2644H80.2284C80.5094 57.2293 80.8254 57.1942 81.1064 57.1591H81.2118C81.5279 57.0888 81.8088 57.0537 82.0898 56.9835L82.1951 56.9484C82.3356 56.9132 82.4761 56.8781 82.6166 56.8079H82.6517C82.7571 56.7728 82.8975 56.7376 83.0029 56.7025L83.1434 56.6323C83.2487 56.5972 83.319 56.562 83.4595 56.5269H83.4946C83.6351 56.4567 83.8107 56.3864 83.9863 56.2811H84.0214C84.1267 56.2108 84.197 56.1757 84.2672 56.1406H84.3023C84.3375 56.1055 84.4077 56.0704 84.4428 56.0704L84.4779 56.0352C84.6887 55.9299 84.8643 55.8245 85.0399 55.684L85.1101 55.6489C85.2506 55.5436 85.4262 55.4382 85.5667 55.3328L85.672 55.2626C85.8125 55.1572 85.953 55.0519 86.0935 54.9465L85.9881 54.806L86.0935 54.9114L86.1988 54.8412C86.3042 54.7709 86.3744 54.6656 86.4798 54.5953V54.5602C86.5852 54.49 86.6554 54.4197 86.7256 54.3495L86.7959 54.2792C86.9012 54.1387 87.0066 54.0334 87.1471 53.8929L87.1822 53.8227C87.2524 53.7524 87.3227 53.6822 87.3929 53.5768L87.4632 53.5066C87.4983 53.4715 87.5334 53.4363 87.5685 53.4012L87.6388 53.2959C87.7441 53.1554 87.8495 53.0149 87.9548 52.8393C88.0602 52.6988 88.1304 52.5583 88.2007 52.4179L88.2709 52.2774C88.3763 52.1369 88.5168 51.8559 88.6221 51.6101C88.6924 51.4345 88.587 51.2238 88.4114 51.1887L83.4243 50.3107C83.2839 50.2755 83.1785 50.3458 83.1083 50.416C82.2303 51.575 80.9659 52.172 79.6314 52.172C78.051 52.172 76.611 51.294 75.8033 49.9595C75.6979 49.7487 75.8384 49.5029 76.0491 49.5029H89.0787C89.2543 49.5029 89.3596 49.3975 89.3948 49.257C89.5001 48.6951 89.5352 48.063 89.5352 47.5362C89.5352 46.5879 89.4299 45.6748 89.1489 44.7617ZM83.4243 45.3938H76.3301C76.1545 45.3938 76.014 45.2182 76.0491 45.0426C76.295 43.6729 78.051 42.6193 79.8772 42.6193C81.9142 42.6193 83.4946 43.6729 83.7404 45.0426C83.7404 45.2182 83.5999 45.3938 83.4243 45.3938ZM100.468 38.0537C99.2386 38.0888 97.7635 38.2293 96.5343 39.002C96.4289 39.0722 96.3236 39.002 96.3236 38.8966V38.3698C96.3236 38.1942 96.1831 38.0537 96.0075 38.0537H90.8097C90.6341 38.0537 90.5288 38.1942 90.5288 38.3698V56.3864C90.5288 56.562 90.6341 56.6674 90.8097 56.6674H96.3587C96.5343 56.6674 96.6748 56.562 96.6748 56.3864V45.9206C96.6748 45.1831 96.6748 44.6212 96.9558 43.989C97.0611 43.7432 97.4474 43.2164 98.1147 43.0408C98.7118 42.9003 99.7302 42.9705 100.257 43.0057C100.433 43.0408 100.573 42.9003 100.573 42.7247L100.749 38.3698C100.749 38.1942 100.608 38.0537 100.468 38.0537ZM111.936 46.026C111.515 45.8504 111.093 45.6748 110.672 45.5343C110.321 45.3938 109.969 45.2534 109.618 45.1129C107.722 44.3402 107.406 43.8134 107.3 43.4622C107.23 43.2515 107.3 43.0057 107.511 42.7949C107.757 42.514 108.143 42.3735 108.6 42.4086C109.267 42.514 109.583 42.8652 109.724 43.2164C109.759 43.3217 109.899 43.4271 110.04 43.392L115.062 42.3735C115.237 42.3384 115.343 42.1979 115.308 42.0223C115.027 40.758 114.219 39.9502 113.938 39.7044C113.552 39.3883 113.13 39.0722 112.639 38.8264C111.655 38.3347 110.531 37.9835 109.302 37.843C107.23 37.5972 105.228 38.0186 103.683 39.002C103.156 39.318 102.7 39.7044 102.313 40.1609C102.032 40.477 100.733 42.1979 101.119 44.2349C101.365 45.6748 102.419 46.904 104.175 47.9225C104.245 47.9576 104.28 47.9576 104.315 47.9927L104.35 48.0278C104.701 48.2034 105.053 48.379 105.439 48.5546C106.001 48.8005 106.493 49.0463 106.879 49.2219L106.914 49.257C108.881 50.1702 109.267 50.4863 109.337 51.1184C109.372 51.3994 109.267 51.6803 109.091 51.8911C108.881 52.0667 108.459 52.2774 107.687 52.172C107.371 52.1369 106.738 51.8911 106.387 51.3643C106.317 51.2589 106.212 51.1887 106.071 51.2238L100.979 52.3125C100.803 52.3476 100.698 52.5583 100.768 52.7339C101.33 53.9983 102.138 55.0168 103.226 55.7543C104.28 56.3513 105.509 56.7376 106.949 56.9132C107.406 56.9484 107.862 56.9835 108.319 56.9835C111.515 56.9835 114.078 55.5787 115.202 53.1905C115.483 52.4881 115.659 51.7857 115.694 51.1184C115.87 48.2034 113.13 46.5879 111.936 46.026Z" fill="#0D0D0D"/>
</svg>
