<svg width="55" height="34" viewBox="0 0 55 34" fill="none" xmlns="http://www.w3.org/2000/svg">
<path fill-rule="evenodd" clip-rule="evenodd" d="M0.774353 25.4525V0.952515H12.7744C15.2744 0.952515 18.2744 2.95251 18.2744 7.95251C18.2744 11.9525 15.2744 14.2858 13.7744 14.9525C14.0463 15.4284 14.2997 15.895 14.5447 16.3461C16.1017 19.2128 17.3182 21.4525 20.7744 21.4525V25.4525C20.5301 25.4525 20.2714 25.4668 19.9985 25.482C17.4783 25.6215 13.7369 25.8287 8.77435 15.4525H5.77435V25.4525H0.774353ZM5.77435 11.9525V4.95251H9.77435C11.2744 4.95251 12.7744 6.45251 12.7744 8.45251C12.7744 10.4525 10.7744 11.9525 9.77435 11.9525H5.77435Z" fill="#98A2B3"/>
<path d="M32.7744 0.952515H27.7744V25.9525C27.7744 28.9525 24.2744 28.4525 22.7744 27.9525V32.4525C26.2744 33.9525 29.5977 32.237 30.7744 31.4525C32.2744 30.4525 32.7744 28.4525 32.7744 25.9525V0.952515Z" fill="#98A2B3"/>
<path d="M54.7744 0.952515H37.7744V4.95251H48.7744L36.7744 21.4525V25.4525H54.7744V21.4525H43.2744L54.7744 4.95251V0.952515Z" fill="#98A2B3"/>
</svg>
