<svg width="88" height="32" viewBox="0 0 88 32" fill="none" xmlns="http://www.w3.org/2000/svg">
<path d="M12.88 10.38C12.4 10.18 11.92 9.98 11.44 9.82C11.04 9.66 10.64 9.5 10.24 9.34C8.08 8.46 7.72 7.86 7.6 7.46C7.52 7.22 7.6 6.94 7.84 6.7C8.12 6.38 8.56 6.22 9.08 6.26C9.84 6.38 10.2 6.78 10.36 7.18C10.4 7.3 10.56 7.42 10.72 7.38L16.44 6.22C16.64 6.18 16.76 6.02 16.72 5.82C16.4 4.38 15.48 3.46 15.16 3.18C14.72 2.82 14.24 2.46 13.68 2.18C12.56 1.62 11.28 1.22 9.88 1.06C7.52 0.779998 5.24 1.26 3.48 2.38C2.88 2.74 2.36 3.18 1.92 3.7C1.6 4.06 0.12 6.02 0.56 8.34C0.84 9.98 2.04 11.38 4.04 12.54C4.12 12.58 4.16 12.58 4.2 12.62L4.24 12.66C4.64 12.86 5.04 13.06 5.48 13.26C6.12 13.54 6.68 13.82 7.12 14.02L7.16 14.06C9.4 15.1 9.84 15.46 9.92 16.18C9.96 16.5 9.84 16.82 9.64 17.06C9.4 17.26 8.92 17.5 8.04 17.38C7.68 17.34 6.96 17.06 6.56 16.46C6.48 16.34 6.36 16.26 6.2 16.3L0.4 17.54C0.2 17.58 0.08 17.82 0.16 18.02C0.8 19.46 1.72 20.62 2.96 21.46C4.16 22.14 5.56 22.58 7.2 22.78C7.72 22.82 8.24 22.86 8.76 22.86C12.4 22.86 15.32 21.26 16.6 18.54C16.92 17.74 17.12 16.94 17.16 16.18C17.36 12.86 14.24 11.02 12.88 10.38ZM28.8609 0.979998C22.6609 0.979998 17.6209 5.98 17.6209 12.1C17.6209 18.22 22.6609 23.18 28.8609 23.18C35.0609 23.18 40.1009 18.22 40.1009 12.1C40.1009 5.98 35.0609 0.979998 28.8609 0.979998ZM28.8609 16.94C26.1409 16.94 23.9409 14.74 23.9409 12.1C23.9409 9.42 26.1409 7.26 28.8609 7.26C31.5809 7.26 33.7809 9.42 33.7809 12.1C33.7809 14.74 31.5809 16.94 28.8609 16.94ZM63.7125 1.38H57.8325C57.6325 1.38 57.4725 1.54 57.4725 1.7V2.34C57.4725 2.5 57.3525 2.58 57.2325 2.5C55.5525 1.54 53.6325 1.02 51.6725 1.02C45.4725 1.02 40.4725 6.02 40.4725 12.1C40.4725 18.18 45.4725 23.18 51.6725 23.18C53.6325 23.18 55.5125 22.66 57.2325 21.7C57.3125 21.66 57.4325 21.7 57.4725 21.82C57.6325 22.78 57.4725 23.62 56.9925 24.34C56.2325 25.38 54.7925 26.06 53.0325 26.18C50.3125 26.34 48.1925 24.58 47.2725 23.62C47.1525 23.5 46.9525 23.5 46.8325 23.58L42.4725 26.94C42.3125 27.1 42.2725 27.34 42.4325 27.46C46.9925 31.62 50.9525 31.82 52.5525 31.82C52.6725 31.82 52.7525 31.82 52.8325 31.82H52.9925C60.1525 31.82 64.0725 27.78 64.0725 20.5V18.38V1.7C64.0725 1.54 63.9125 1.38 63.7125 1.38ZM52.6725 17.18C52.6325 17.18 52.5925 17.18 52.5525 17.18H52.5125C49.7125 17.1 47.5525 14.86 47.5525 12.1C47.5525 9.3 49.8325 7.02 52.6725 7.02C54.8325 7.02 56.4325 8.34 57.1525 10.34C57.3925 10.9 57.4725 11.5 57.4725 12.1C57.4725 14.9 55.5125 17.18 52.6725 17.18ZM76.4391 0.979998C70.2391 0.979998 65.1991 5.98 65.1991 12.1C65.1991 18.22 70.2391 23.18 76.4391 23.18C82.6391 23.18 87.6791 18.22 87.6791 12.1C87.6791 5.98 82.6391 0.979998 76.4391 0.979998ZM76.4391 16.94C73.7191 16.94 71.5191 14.74 71.5191 12.1C71.5191 9.42 73.7191 7.26 76.4391 7.26C79.1591 7.26 81.3591 9.42 81.3591 12.1C81.3591 14.74 79.1591 16.94 76.4391 16.94Z" fill="#7F56D9"/>
</svg>
